<?xml version="1.0" encoding="utf-8"?>
<!-- Generator: Adobe Illustrator 15.0.2, SVG Export Plug-In . SVG Version: 6.00 Build 0)  -->
<!DOCTYPE svg PUBLIC "-//W3C//DTD SVG 1.1//EN" "http://www.w3.org/Graphics/SVG/1.1/DTD/svg11.dtd">
<svg version="1.1" xmlns="http://www.w3.org/2000/svg" xmlns:xlink="http://www.w3.org/1999/xlink" x="0px" y="0px" width="107px"
	 height="41px" viewBox="0 0 107 41" enable-background="new 0 0 107 41" xml:space="preserve">
<g id="Layer_1">
	<rect y="-0.029" fill="none" width="41.891" height="41.029"/>
	<g>
		<path fill="#FFFFFF" d="M13.31,7.23l5.865,26.002h-3.78l-1.025-5.369H8.681l-1.025,5.369H4.229L9.706,7.23H13.31z M13.839,24.967
			l-2.262-11.872h-0.07L9.246,24.967H13.839z"/>
		<path fill="#FFFFFF" d="M21.754,14.225h3.25v3.463h0.071c0.353-1.731,1.52-3.604,4.099-3.78h0.035v3.957
			c-0.283-0.106-0.601-0.177-1.025-0.177c-1.307,0-3.003,0.919-3.003,4.451v11.094h-3.427V14.225z"/>
		<path fill="#FFFFFF" d="M37.794,17.299h-1.837v11.2c0,0.955,0.53,1.483,1.414,1.483h0.424v3.074
			c-0.565,0.104-1.13,0.176-1.625,0.176c-2.19,0-3.639-1.023-3.639-3.426V17.299h-1.838v-3.074h1.838V9.491h3.427v4.734h1.837
			L37.794,17.299L37.794,17.299z"/>
	</g>
	<g>
		<path fill="#FFFFFF" d="M19.404,8.847c0-0.758-0.758-0.926-1.375-0.926c-0.432,0-0.837,0.106-1.269,0.317l-0.343-0.661
			c0.696-0.291,1.242-0.353,1.657-0.353c1.102,0,2.124,0.467,2.124,1.56v3.137h-0.74v-0.493c-0.406,0.423-0.855,0.599-1.463,0.599
			c-1.119,0-2.001-0.625-2.001-1.647c0-0.837,0.714-1.578,1.992-1.578c0.485,0,0.996,0.141,1.419,0.521L19.404,8.847L19.404,8.847z
			 M18.136,9.499c-0.97,0-1.296,0.467-1.296,0.916c0,0.45,0.326,0.917,1.296,0.917c0.969,0,1.295-0.467,1.295-0.917
			C19.431,9.966,19.104,9.499,18.136,9.499z"/>
		<path fill="#FFFFFF" d="M24.419,9.252c0-0.688-0.281-1.287-1.066-1.287c-0.74,0-1.189,0.503-1.189,1.375v2.582h-0.793V7.331h0.793
			v0.538h0.017c0.238-0.415,0.749-0.644,1.26-0.644c0.89,0,1.771,0.485,1.771,1.727v2.97h-0.794L24.419,9.252L24.419,9.252z"/>
		<path fill="#FFFFFF" d="M30.387,5.225h0.793v6.697h-0.793v-0.705H30.37c-0.335,0.477-0.917,0.811-1.71,0.811
			c-1.277,0-2.423-1.004-2.423-2.45c0-1.321,1.093-2.353,2.388-2.353c0.678,0,1.366,0.282,1.746,0.828h0.017L30.387,5.225
			L30.387,5.225z M28.766,7.965c-1.075,0-1.683,0.855-1.683,1.622c0,1.058,0.82,1.701,1.657,1.701c0.907,0,1.647-0.74,1.647-1.657
			C30.387,8.706,29.63,7.965,28.766,7.965z"/>
	</g>
	<path fill="#FFFFFF" d="M41.891-6.667V44h70.506V-6.667H41.891z M61.059,33.232h-3.207V20.765c0-1.356-0.434-2.58-1.724-2.58
		c-1.483,0-2.114,1.422-2.114,3.174v11.873h-3.208V20.765c0-1.356-0.43-2.58-1.719-2.58c-1.488,0-2.117,1.422-2.117,3.174v11.873
		h-3.207l0.003-17.792h3.042v2.678h0.065c0.761-1.851,1.885-2.976,3.539-2.976c1.72,0,2.579,1.125,3.174,2.943h0.066
		c0.464-1.29,1.456-2.943,3.834-2.943c2.248,0,3.572,1.621,3.572,3.869V33.232z M73.689,33.232h-3.043v-2.416h-0.063
		c-0.794,1.979-1.951,2.713-3.538,2.713c-1.752,0-3.309-1.619-3.309-3.938v-14.15h3.209v12.864c0,1.389,0.66,2.188,1.554,2.188
		c1.29,0,1.985-1.229,1.985-2.518V15.441h3.205V33.232z M80.338,33.525c-2.347,0-3.9-0.989-4.895-3.438l2.777-1.75
		c0.032,1.256,0.827,2.479,2.182,2.479c1.193,0,1.82-0.926,1.82-1.785c0-0.858-0.466-1.784-1.984-2.975l-1.687-1.322
		c-2.183-1.721-2.909-3.012-2.909-4.896c0-2.91,2.051-4.696,4.729-4.696c2.744,0,4.1,1.521,4.859,3.472l-2.744,1.653
		c-0.065-1.256-0.762-2.414-2.149-2.414c-1.022,0-1.651,0.661-1.651,1.62c0,0.761,0.33,1.389,1.982,2.646l2.018,1.555
		c2.084,1.619,2.746,3.239,2.746,4.992C85.432,31.275,83.613,33.525,80.338,33.525z M90.391,33.232h-3.209V15.441h3.209V33.232z
		 M88.77,13.425c-1.123,0-2.049-0.926-2.049-2.083c0-1.125,0.926-2.051,2.049-2.051c1.157,0,2.084,0.926,2.084,2.051
		C90.854,12.498,89.927,13.425,88.77,13.425z M97.568,33.529c-3.44,0-5.062-2.744-5.062-8.896c0-6.615,1.586-9.491,5.191-9.491
		c3.074,0,4.266,2.579,4.33,4.828l-3.039,0.663c-0.035-1.719-0.396-2.613-1.456-2.613c-1.058,0-1.818,0.827-1.818,6.349
		c0,4.068,0.495,6.281,1.854,6.281c1.057,0,1.521-0.824,1.75-3.041l2.877,0.992C101.732,31.839,100.375,33.529,97.568,33.529z"/>
</g>
<g id="Layer_2">
</g>
</svg>
