<?xml version="1.0" encoding="UTF-8" standalone="no"?>
<!DOCTYPE svg PUBLIC "-//W3C//DTD SVG 1.1//EN" "http://www.w3.org/Graphics/SVG/1.1/DTD/svg11.dtd">
<svg width="100%" height="100%" viewBox="0 0 48 48" version="1.1" xmlns="http://www.w3.org/2000/svg" xmlns:xlink="http://www.w3.org/1999/xlink" xml:space="preserve" xmlns:serif="http://www.serif.com/" style="fill-rule:evenodd;clip-rule:evenodd;stroke-linejoin:round;stroke-miterlimit:2;">
    <g id="e-mail_1_" transform="matrix(1,0,0,1,-984,-408)">
        <path d="M1008.4,426.5C1007.3,426.5 1006.4,427.2 1005.6,428.6C1004.8,430.1 1004.3,431.5 1004.3,432.8C1004.3,433.6 1004.5,434.2 1004.8,434.6C1005.1,435 1005.6,435.2 1006.2,435.2C1007.3,435.2 1008.2,434.3 1008.9,432.6C1009.7,430.7 1010.1,429.3 1010.1,428.2C1010.1,427.7 1009.9,427.2 1009.6,426.9C1009.3,426.7 1008.9,426.5 1008.4,426.5Z" style="fill-rule:nonzero;"/>
        <path d="M1027,408L989,408C986.2,408 984,410.2 984,413L984,451C984,453.8 986.2,456 989,456L1027,456C1029.8,456 1032,453.8 1032,451L1032,413C1032,410.2 1029.8,408 1027,408ZM1013.4,434.9C1013.6,435.1 1013.8,435.2 1014.2,435.2C1015.1,435.2 1016,434.6 1016.9,433.4C1017.9,432.2 1018.3,430.5 1018.3,428.4C1018.3,425.3 1017,423.1 1014.3,421.8C1012.6,420.9 1010.7,420.5 1008.6,420.5C1004.7,420.5 1001.6,421.7 999.2,424.1C997.1,426.2 996,428.8 996,431.8C996,435.1 997.2,437.8 999.7,439.7C1001.9,441.4 1004.6,442.3 1007.8,442.3C1010,442.3 1012,441.9 1013.9,441.1C1014.9,440.7 1016,440.1 1017.1,439.3L1017.9,438.8L1019.6,441.4L1019.3,441.6C1017.6,442.9 1015.7,443.9 1013.7,444.6C1011.7,445.3 1009.6,445.6 1007.5,445.6C1002.5,445.6 998.6,444 995.8,440.9C993.5,438.3 992.4,435.2 992.4,431.7C992.4,427.7 993.8,424.3 996.7,421.6C999.7,418.7 1003.6,417.2 1008.2,417.2C1012,417.2 1015.2,418.2 1017.7,420.2C1020.4,422.3 1021.7,425.2 1021.7,428.7C1021.7,431.5 1020.8,433.9 1019.2,435.8C1017.5,437.8 1015.5,438.8 1013.3,438.8C1012.1,438.8 1011.2,438.4 1010.5,437.8C1010.1,437.3 1009.8,436.8 1009.6,436.3C1009.3,436.7 1009,437 1008.7,437.3C1007.6,438.3 1006.3,438.8 1004.8,438.8C1003.3,438.8 1002,438.2 1000.9,437.1C999.9,436 999.4,434.5 999.4,432.5C999.4,430.3 1000.2,428.2 1001.7,426.3C1003.2,424.3 1005.1,423.4 1007.4,423.4C1008.7,423.4 1009.8,423.8 1010.6,424.5C1010.9,424.8 1011.1,425.2 1011.3,425.5L1011.7,424.1L1015.9,424.1L1013.5,432.2C1013.4,432.7 1013.3,433 1013.2,433.3C1013.2,433.3 1013,434 1013,434.2C1013.1,434.4 1013.2,434.6 1013.4,434.9Z" style="fill-rule:nonzero;"/>
    </g>
</svg>
