<?xml version="1.0" encoding="utf-8"?>
<!-- Generator: Adobe Illustrator 16.0.1, SVG Export Plug-In . SVG Version: 6.00 Build 0)  -->
<!DOCTYPE svg PUBLIC "-//W3C//DTD SVG 1.1//EN" "http://www.w3.org/Graphics/SVG/1.1/DTD/svg11.dtd">
<svg version="1.1" id="Layer_1" xmlns="http://www.w3.org/2000/svg" xmlns:xlink="http://www.w3.org/1999/xlink" x="0px" y="0px"
	 width="520px" height="520px" viewBox="-250.875 -219 520 520" enable-background="new -250.875 -219 520 520"
	 xml:space="preserve">
<rect x="-250.875" y="-219" fill="#020202" width="520" height="520"/>
<g>
	<path fill="#FFFFFF" d="M-41.316-93.713c0.69,6.489,6.142,9.845,12.51,9.845c9.373,0,11.93-5.102,11.93-8.688
		c0-3.92-2.557-6.368-10.664-8.565l-10.53-2.889c-8.91-2.43-12.268-8.343-12.268-15.521c0-9.954,7.526-18.284,21.532-18.284
		c15.388,0,20.725,9.732,20.725,18.751h-9.73c-0.808-6.832-4.276-10.188-11.222-10.188c-6.589,0-10.874,3.932-10.874,8.676
		c0,3.367,1.849,5.9,6.708,7.299l14.121,4.057c9.484,2.78,12.617,7.987,12.617,15.742c0,12.265-10.755,18.743-21.882,18.743
		c-14.121,0-22.335-7.522-22.686-18.977H-41.316z"/>
	<path fill="#FFFFFF" d="M8.577-151.026h10.421v14.598h9.611v9.144h-9.611v37.037c0,3.246,1.044,4.399,5.101,4.399h4.744v9.612
		c-1.502,0.119-3.933,0.119-6.369,0.119c-10.652,0-13.896-3.698-13.896-12.962v-38.205H0.232v-9.131h8.345V-151.026z"/>
	<path fill="#FFFFFF" d="M97.581-87.812c-8.107,9.019-16.673,13.076-27.205,13.076c-21.42,0-32.869-15.522-32.869-31.607
		c0-17.132,12.275-31.485,31.124-31.485c18.643,0,31.606,14.232,31.606,35.539H48.626c1.599,10.297,9.953,17.83,21.625,17.83
		c7.411,0,14.012-3.476,19.345-9.721L97.581-87.812z M88.439-110.868c-1.058-9.954-9.155-17.242-19.908-17.242
		c-12.728,0-18.874,9.022-19.905,17.242H88.439z"/>
	<path fill="#FFFFFF" d="M155.449-136.416h11.809l-26.037,60.298H131.5l-26.052-60.298h11.797l19.108,46.413L155.449-136.416z"/>
	<path fill="#FFFFFF" d="M233.692-87.812c-8.1,9.019-16.665,13.076-27.207,13.076c-21.41,0-32.873-15.522-32.873-31.607
		c0-17.132,12.274-31.485,31.139-31.485c18.643,0,31.595,14.232,31.595,35.539h-51.622c1.62,10.297,9.952,17.83,21.637,17.83
		c7.424,0,14.011-3.476,19.329-9.721L233.692-87.812z M224.562-110.868c-1.047-9.954-9.157-17.242-19.919-17.242
		c-12.734,0-18.864,9.022-19.908,17.242H224.562z"/>
</g>
<path fill="#FFFFFF" d="M-76.987-121.36v39.69h-75.755v98.11h75.766v39.719h-75.766v158.349h-46.562V-121.36H-76.987z"/>
<path fill="#FFFFFF" d="M38.932,214.522v-36.017h-0.923c-12.768,28.73-28.3,40.146-51.116,40.146
	c-17.339,0-50.191-9.584-50.191-69.382c0-64.811,25.104-86.72,85.798-86.72h16.432V31.029c0-16.431-7.314-28.741-27.837-28.741
	c-17.804,0-26.015,9.584-28.3,31.041l-39.248-10.95c6.842-44.279,35.146-57.511,69.823-57.511c42.446,0,67.554,18.715,67.554,64.354
	v185.265L38.932,214.522L38.932,214.522z M4.7,181.207c13.695,0,34.231-15.989,34.231-52.495V96.354H27.516
	c-41.979,0-46.558,23.718-46.558,47.449C-19.03,165.714-14.931,181.207,4.7,181.207z"/>
<path fill="#FFFFFF" d="M126.094-30.979h42.001v44.744h0.897c4.56-22.365,19.626-46.576,52.938-48.848h0.468v51.107
	c-3.65-1.364-7.767-2.26-13.235-2.26c-16.886,0-38.805,11.859-38.805,57.486v143.271h-44.265V-30.979z"/>
</svg>
