<?xml version="1.0" encoding="UTF-8" standalone="no"?>
<!DOCTYPE svg PUBLIC "-//W3C//DTD SVG 1.1//EN" "http://www.w3.org/Graphics/SVG/1.1/DTD/svg11.dtd">
<svg width="100%" height="100%" viewBox="0 0 48 48" version="1.1" xmlns="http://www.w3.org/2000/svg" xmlns:xlink="http://www.w3.org/1999/xlink" xml:space="preserve" xmlns:serif="http://www.serif.com/" style="fill-rule:evenodd;clip-rule:evenodd;stroke-linejoin:round;stroke-miterlimit:2;">
    <g id="github_1_" transform="matrix(1,0,0,1,-216,-312)">
        <path d="M259,312L221,312C218.2,312 216,314.2 216,317L216,355C216,357.8 218.2,360 221,360L259,360C261.8,360 264,357.8 264,355L264,317C264,314.2 261.8,312 259,312ZM236,344L232,344L232,338L236,338L236,344ZM242,346L238,346L238,344L242,344L242,346ZM248,344L244,344L244,338L248,338L248,344ZM246,326L254,322L254.1,330C255.5,331.7 256,333.6 256,336L256,338C256,341.7 254,344.9 251,346.6C251.6,345.9 252,345 252,344L252,340C252,337.8 250.2,336 248,336L232,336C229.8,336 228,337.8 228,340L228,344C228,345 228.4,345.9 229,346.6C226,344.9 224,341.7 224,338L224,336C224,333.7 224.7,331.7 226,330L226,322L234,326L246,326Z" style="fill-rule:nonzero;"/>
    </g>
</svg>
