<?xml version="1.0" encoding="utf-8"?>
<!-- Generator: Adobe Illustrator 16.0.1, SVG Export Plug-In . SVG Version: 6.00 Build 0)  -->
<!DOCTYPE svg PUBLIC "-//W3C//DTD SVG 1.1//EN" "http://www.w3.org/Graphics/SVG/1.1/DTD/svg11.dtd">
<svg version="1.1" id="Layer_1" xmlns="http://www.w3.org/2000/svg" xmlns:xlink="http://www.w3.org/1999/xlink" x="0px" y="0px"
	 width="12.5px" height="12.92px" viewBox="0 0 12.5 12.92" enable-background="new 0 0 12.5 12.92" xml:space="preserve">
<g opacity="0.2">
	<path fill-rule="evenodd" clip-rule="evenodd" fill="#FFFFFF" d="M10.994,5.063C10.992,5.06,10.992,5.06,10.994,5.063L10.994,5.063
		z"/>
	<path fill-rule="evenodd" clip-rule="evenodd" fill="#FFFFFF" d="M11.035,5.15c-0.003-0.005-0.005-0.011-0.008-0.016
		C11.03,5.141,11.033,5.147,11.035,5.15z"/>
	<path fill-rule="evenodd" clip-rule="evenodd" fill="#FFFFFF" d="M10.997,5.071c-0.001-0.003-0.002-0.006-0.003-0.007
		C10.995,5.065,10.996,5.068,10.997,5.071z"/>
	<path fill-rule="evenodd" clip-rule="evenodd" fill="#FFFFFF" d="M18.951,5.731c0,0,0.001-0.001,0.002-0.003
		C18.952,5.729,18.952,5.73,18.951,5.731z"/>
	<path fill-rule="evenodd" clip-rule="evenodd" fill="#FFFFFF" d="M15.748,12.989c0,0-0.955,0.297-1.174,0.362
		c0,0-0.413,0.163-0.594,0.488c0,0-0.646,0.894-0.104,1.914h1.549c0,0,0.625-1.111,0.686-2.467
		C16.111,13.286,16.252,12.809,15.748,12.989z"/>
	<path fill-rule="evenodd" clip-rule="evenodd" fill="#FFFFFF" d="M18.997,5.637c-0.001,0.001-0.003,0.003-0.004,0.006
		C18.995,5.64,18.996,5.638,18.997,5.637z"/>
	<path fill-rule="evenodd" clip-rule="evenodd" fill="#FFFFFF" d="M24.208,10.096c-0.181-1.86-2.53-4.442-2.53-4.442
		c-0.311-0.335-0.75-1.214-0.75-1.214c-0.232-0.93,0.465-1.886,0.465-1.886c1.499-2.067,1.267-3.048,1.267-3.048
		c0.18-1.937-1.447-2.815-1.447-2.815c-1.317-1.007-4.158-1.189-4.158-1.189l-2.635-0.129c-4.391-0.18-5.527,2.015-5.527,2.015
		C8.064-1.01,8.71,0.409,8.71,0.409C9.021,1.056,9.614,2.45,9.614,2.45c0.542,1.06-0.336,2.17-0.336,2.17
		C8.685,5.292,7.109,7.048,7.109,7.048c-1.886,2.376-1.344,4.882-1.344,4.882c0.517,2.66,2.144,3.822,2.144,3.822h5.399
		c0,0-0.969-1.331,0.104-2.686c0,0,0.451-0.465,1.188-0.671l0.762-0.168c0,0,0.439-0.168,0.594-0.246c0,0,0.518-0.194,0.596,0.142
		c0,0,0.206,0.862,0.051,1.716c0,0-0.271,1.397-0.658,1.914h6.405C24.957,13.505,24.208,10.096,24.208,10.096z M13.541,1.357
		l0.047-0.832c0.013-0.229,0.23-0.404,0.488-0.389l2.836,0.16c0.257,0.014,0.453,0.213,0.439,0.443l-0.046,0.832
		c-0.013,0.23-0.231,0.404-0.488,0.388l-2.836-0.16C13.725,1.787,13.527,1.587,13.541,1.357z M11.038,5.158
		c-0.184-0.39-0.693,0.75-0.732,0.849C10.093,6.548,9.892,7.154,9.989,7.74c0.022,0.134,0.127,0.3,0.133,0.428
		c0.099,0.263-0.073,0.172-0.142,0.335c-0.14,0.28-0.211,0.549-0.286,0.849c-0.186,0.752-0.37,1.697-1.222,1.971
		c-0.352,0.114-1.056-0.229-0.731-0.679c0.229-0.319,0.615-0.068,0.767,0.185C9.173,10.348,9.31,9.17,9.18,8.425
		C9.139,8.188,8.908,7.787,8.998,7.599c0.276-0.193,0.429-0.429,0.549-0.748c0.255-0.682,0.462-1.582,1.104-2.008
		c0.223-0.147,0.613-0.304,0.801-0.006C11.617,5.141,11.278,5.435,11.038,5.158z M18.494,9.028
		c-0.219,0.173-0.295,0.086-0.295,0.086c-0.328-0.069-0.81,0.036-0.81,0.036l-0.12,0.087c-0.553,0.155-0.604-0.123-0.604-0.123
		c-0.241-0.12-0.447,0.019-0.447,0.019c-0.293,0.051-0.482,0.017-0.482,0.017c-0.758-0.224-2.066,0.085-2.066,0.085
		c-0.654,0.017-0.638-0.19-0.638-0.19L12.585,8.96c-0.758-0.017-0.638-0.155-0.638-0.155V8.271c0-0.104,2.359,0,2.359,0v0.103
		l1.722,0.068l0.069-0.085l2.188,0.051c0.137-0.068,0.209,0.051,0.209,0.051V9.028z M21.518,11.896
		c-0.852-0.275-1.035-1.219-1.222-1.971c-0.073-0.3-0.146-0.57-0.285-0.85c-0.069-0.163-0.24-0.071-0.142-0.336
		c0.006-0.127,0.11-0.293,0.133-0.427c0.096-0.584-0.104-1.192-0.318-1.731c-0.038-0.098-0.548-1.241-0.732-0.849
		c-0.239,0.275-0.578-0.019-0.412-0.323c0.188-0.298,0.578-0.14,0.801,0.008c0.642,0.424,0.849,1.324,1.104,2.007
		c0.119,0.319,0.271,0.555,0.548,0.749c0.091,0.187-0.141,0.589-0.182,0.827c-0.13,0.743,0.007,1.921,0.673,2.401
		c0.152-0.253,0.537-0.502,0.766-0.185C22.574,11.668,21.871,12.01,21.518,11.896z"/>
</g>
</svg>
