<?xml version="1.0" encoding="UTF-8" standalone="no"?>
<!DOCTYPE svg PUBLIC "-//W3C//DTD SVG 1.1//EN" "http://www.w3.org/Graphics/SVG/1.1/DTD/svg11.dtd">
<svg width="100%" height="100%" viewBox="0 0 48 48" version="1.1" xmlns="http://www.w3.org/2000/svg" xmlns:xlink="http://www.w3.org/1999/xlink" xml:space="preserve" xmlns:serif="http://www.serif.com/" style="fill-rule:evenodd;clip-rule:evenodd;stroke-linejoin:round;stroke-miterlimit:2;">
    <g id="linked_x5F_in_1_" transform="matrix(1,0,0,1,-792,-216)">
        <path d="M835,216L797,216C794.2,216 792,218.2 792,221L792,259C792,261.8 794.2,264 797,264L835,264C837.8,264 840,261.8 840,259L840,221C840,218.2 837.8,216 835,216ZM808,254L807.7,254L802,254L802,234L808,234L808,254ZM805,231.3C803,231.3 801.3,229.7 801.3,227.6C801.3,225.5 802.9,223.9 805,223.9C807,223.9 808.7,225.5 808.7,227.6C808.7,229.7 807,231.3 805,231.3ZM830,254L824,254L824,243.4C824,240.9 822.9,239.2 820.7,239.2C819,239.2 818.6,240.4 818.2,241.5C818,241.9 818,242.5 818,243L818,254L812,254C812,254 812.1,235.7 812,234L818,234L818,237.4C818,236.1 819.4,233.9 824.1,233.9C828.8,233.9 830,234 830,240.7L830,254Z" style="fill-rule:nonzero;"/>
    </g>
</svg>
