<?xml version="1.0" encoding="utf-8"?>
<!-- Generator: Adobe Illustrator 16.0.1, SVG Export Plug-In . SVG Version: 6.00 Build 0)  -->
<!DOCTYPE svg PUBLIC "-//W3C//DTD SVG 1.1//EN" "http://www.w3.org/Graphics/SVG/1.1/DTD/svg11.dtd">
<svg version="1.1" id="Layer_1" xmlns="http://www.w3.org/2000/svg" xmlns:xlink="http://www.w3.org/1999/xlink" x="0px" y="0px"
	 width="107px" height="41px" viewBox="0 0 107 41" enable-background="new 0 0 107 41" xml:space="preserve">
<g>
	<path d="M17.704,7.534c0.055,0.515,0.488,0.782,0.994,0.782c0.745,0,0.948-0.405,0.948-0.69c0-0.312-0.203-0.506-0.847-0.681
		l-0.837-0.23c-0.708-0.193-0.975-0.663-0.975-1.233c0-0.791,0.598-1.453,1.711-1.453c1.223,0,1.647,0.773,1.647,1.49h-0.773
		c-0.064-0.543-0.34-0.81-0.892-0.81c-0.524,0-0.864,0.313-0.864,0.69c0,0.267,0.147,0.469,0.533,0.58l1.122,0.322
		c0.754,0.221,1.003,0.635,1.003,1.251c0,0.975-0.855,1.49-1.739,1.49c-1.122,0-1.775-0.598-1.803-1.508H17.704z"/>
	<path d="M21.669,2.98h0.828v1.16h0.764v0.727h-0.764V7.81c0,0.258,0.083,0.35,0.405,0.35h0.377v0.764
		c-0.119,0.009-0.312,0.009-0.506,0.009c-0.846,0-1.104-0.294-1.104-1.03V4.866h-0.663V4.14h0.663V2.98z"/>
	<path d="M28.742,8.003c-0.644,0.717-1.325,1.039-2.162,1.039c-1.702,0-2.612-1.233-2.612-2.511c0-1.361,0.975-2.502,2.474-2.502
		c1.481,0,2.511,1.131,2.511,2.824h-4.102c0.128,0.819,0.791,1.417,1.72,1.417c0.588,0,1.113-0.276,1.536-0.772L28.742,8.003z
		 M28.015,6.172c-0.083-0.792-0.727-1.371-1.582-1.371c-1.011,0-1.5,0.717-1.582,1.371H28.015z"/>
	<path d="M33.341,4.14h0.938L32.21,8.932h-0.773l-2.07-4.792h0.938l1.518,3.688L33.341,4.14z"/>
	<path d="M39.559,8.003c-0.644,0.717-1.325,1.039-2.162,1.039c-1.702,0-2.613-1.233-2.613-2.511c0-1.361,0.976-2.502,2.475-2.502
		c1.481,0,2.511,1.131,2.511,2.824h-4.103c0.129,0.819,0.791,1.417,1.72,1.417c0.589,0,1.113-0.276,1.536-0.772L39.559,8.003z
		 M38.833,6.172C38.75,5.38,38.106,4.801,37.25,4.801c-1.012,0-1.499,0.717-1.582,1.371H38.833z"/>
</g>
<path d="M14.869,5.337v3.155h-6.02v7.797h6.021v3.156H8.849v12.584h-3.7V5.337H14.869z"/>
<path d="M24.081,32.029v-2.863h-0.073c-1.015,2.284-2.249,3.191-4.062,3.191c-1.378,0-3.989-0.762-3.989-5.514
	c0-5.15,1.995-6.892,6.818-6.892h1.306v-2.504c0-1.306-0.581-2.284-2.212-2.284c-1.415,0-2.067,0.762-2.249,2.466l-3.119-0.87
	c0.544-3.518,2.793-4.57,5.549-4.57c3.373,0,5.368,1.487,5.368,5.114v14.723L24.081,32.029L24.081,32.029z M21.361,29.383
	c1.088,0,2.72-1.271,2.72-4.172v-2.572h-0.907c-3.336,0-3.7,1.885-3.7,3.771C19.475,28.15,19.801,29.383,21.361,29.383z"/>
<path d="M31.008,12.519h3.337v3.555h0.072c0.363-1.777,1.56-3.7,4.207-3.881h0.037v4.062c-0.29-0.109-0.617-0.181-1.052-0.181
	c-1.342,0-3.083,0.943-3.083,4.569v11.386h-3.518V12.519z"/>
<rect x="64.971" y="12.837" width="3.521" height="19.51"/>
<path d="M75.854,18.604c0-1.415,0.76-2.757,2.176-2.757c0.977,0,1.704,0.87,1.704,2.394v14.107h3.519V16.826
	c0-2.538-1.705-4.315-3.627-4.315c-1.74,0-3.015,0.798-3.884,2.974h-0.069v-2.648h-3.338v19.51h3.52V18.604z"/>
<path d="M66.713,10.625c1.269,0,2.285-1.015,2.285-2.285c0-1.233-1.014-2.249-2.285-2.249c-1.229,0-2.25,1.016-2.25,2.249
	C64.463,9.61,65.483,10.625,66.713,10.625z"/>
<path d="M91.012,32.678c1.924,0,2.975-1.271,3.627-3.52h0.072v1.669c0,3.845-0.545,5.693-2.61,5.693
	c-1.16,0-2.103-0.726-2.611-1.632l-2.829,1.959c1.197,1.848,2.865,2.646,5.44,2.646c3.952,0,5.948-2.611,5.948-5.947V12.839h-3.155
	v3.191H94.82c-0.834-2.249-1.85-3.518-3.916-3.518c-2.322,0-4.426,1.995-4.426,10.047C86.479,28.797,87.967,32.678,91.012,32.678z
	 M92.426,15.667c1.018,0,2.287,0.943,2.285,6.927c0,5.985-1.268,6.929-2.285,6.929c-0.979,0-2.248-0.944-2.248-6.929
	C90.178,16.608,91.446,15.667,92.426,15.667z"/>
<path d="M53.729,18.604c0-1.415,0.761-2.757,2.176-2.757c0.979,0,1.704,0.87,1.704,2.394v14.107h3.52V16.825
	c0-2.538-1.703-4.315-3.664-4.315c-1.812,0-3.008,1.16-3.662,2.539H53.73V5.655h-3.52v26.692h3.519V18.604z"/>
<path d="M42.16,28.832c0,2.465,1.487,3.516,3.735,3.516c0.508,0,1.089-0.071,1.668-0.18v-3.156h-0.436
	c-0.905,0-1.45-0.543-1.45-1.521V15.992h1.887v-3.156h-1.886V7.978H42.16v4.859h-1.886v3.156h1.886V28.832z"/>
</svg>
