<?xml version="1.0" encoding="utf-8"?>
<!-- Generator: Adobe Illustrator 15.0.2, SVG Export Plug-In . SVG Version: 6.00 Build 0)  -->
<!DOCTYPE svg PUBLIC "-//W3C//DTD SVG 1.1//EN" "http://www.w3.org/Graphics/SVG/1.1/DTD/svg11.dtd">
<svg version="1.1" id="Layer_1" xmlns="http://www.w3.org/2000/svg" xmlns:xlink="http://www.w3.org/1999/xlink" x="0px" y="0px"
	 width="107px" height="41px" viewBox="0 0 107 41" enable-background="new 0 0 107 41" xml:space="preserve">
<rect fill="none" width="41.911" height="40.947"/>
<g>
	<path fill="#FFFFFF" d="M17.704,9.345c0.055,0.515,0.488,0.782,0.994,0.782c0.745,0,0.948-0.405,0.948-0.69
		c0-0.312-0.203-0.506-0.847-0.681l-0.837-0.23c-0.708-0.193-0.975-0.663-0.975-1.233c0-0.791,0.598-1.453,1.711-1.453
		c1.223,0,1.647,0.773,1.647,1.49h-0.773c-0.064-0.543-0.34-0.81-0.892-0.81c-0.524,0-0.864,0.313-0.864,0.69
		c0,0.267,0.147,0.469,0.533,0.58l1.122,0.322c0.754,0.221,1.003,0.635,1.003,1.251c0,0.975-0.855,1.49-1.739,1.49
		c-1.122,0-1.775-0.598-1.803-1.508H17.704z"/>
	<path fill="#FFFFFF" d="M21.669,4.791h0.828V5.95h0.764v0.727h-0.764V9.62c0,0.258,0.083,0.35,0.405,0.35h0.377v0.764
		c-0.119,0.009-0.312,0.009-0.506,0.009c-0.846,0-1.104-0.294-1.104-1.03V6.677h-0.663V5.95h0.663V4.791z"/>
	<path fill="#FFFFFF" d="M28.742,9.814c-0.644,0.717-1.325,1.039-2.162,1.039c-1.702,0-2.612-1.233-2.612-2.511
		c0-1.361,0.975-2.502,2.474-2.502c1.481,0,2.511,1.131,2.511,2.824h-4.102c0.128,0.819,0.791,1.417,1.72,1.417
		c0.588,0,1.113-0.276,1.536-0.772L28.742,9.814z M28.015,7.983c-0.083-0.792-0.727-1.371-1.582-1.371
		c-1.011,0-1.5,0.717-1.582,1.371H28.015z"/>
	<path fill="#FFFFFF" d="M33.341,5.95h0.938l-2.069,4.792h-0.773l-2.07-4.792h0.938l1.518,3.688L33.341,5.95z"/>
	<path fill="#FFFFFF" d="M39.559,9.814c-0.644,0.717-1.325,1.039-2.162,1.039c-1.702,0-2.613-1.233-2.613-2.511
		c0-1.361,0.976-2.502,2.475-2.502c1.481,0,2.511,1.131,2.511,2.824h-4.103c0.129,0.819,0.791,1.417,1.72,1.417
		c0.589,0,1.113-0.276,1.536-0.772L39.559,9.814z M38.833,7.983c-0.083-0.792-0.727-1.371-1.583-1.371
		c-1.012,0-1.499,0.717-1.582,1.371H38.833z"/>
</g>
<path fill="none" d="M14.869,7.148v3.155h-6.02V18.1h6.021v3.156H8.849V33.84h-3.7V7.148H14.869z"/>
<path fill="none" d="M24.081,33.841v-2.864h-0.073c-1.015,2.284-2.249,3.191-4.062,3.191c-1.378,0-3.989-0.762-3.989-5.513
	c0-5.15,1.995-6.892,6.818-6.892h1.306v-2.503c0-1.306-0.581-2.284-2.212-2.284c-1.415,0-2.067,0.762-2.249,2.466l-3.119-0.87
	c0.544-3.518,2.793-4.57,5.549-4.57c3.373,0,5.368,1.487,5.368,5.114v14.724H24.081z M21.361,31.193c1.088,0,2.72-1.27,2.72-4.172
	v-2.573h-0.907c-3.336,0-3.7,1.886-3.7,3.771C19.475,29.961,19.801,31.193,21.361,31.193z"/>
<path fill="none" d="M31.008,14.329h3.337v3.555h0.072c0.363-1.777,1.56-3.7,4.207-3.881h0.037v4.062
	c-0.29-0.109-0.617-0.181-1.052-0.181c-1.342,0-3.083,0.943-3.083,4.569v11.388h-3.518V14.329z"/>
<g>
	<path fill="none" d="M96.566,17.158c-0.979,0-2.248,0.942-2.248,6.927c0,5.985,1.27,6.929,2.248,6.929
		c1.018,0,2.285-0.943,2.285-6.929C98.854,18.101,97.584,17.158,96.566,17.158z"/>
	<path fill="none" d="M41.911-2v46.334h68.423V-2H41.911z M51.705,17.485L51.705,17.485h-1.887v11.498
		c0,0.979,0.545,1.522,1.45,1.522h0.436v3.155c-0.579,0.109-1.16,0.181-1.668,0.181c-2.248,0-3.735-1.052-3.735-3.517V17.485h-1.886
		v-3.156h1.886V9.47h3.518v4.859h1.886V17.485z M65.27,33.84h-3.52V19.733c0-1.524-0.725-2.394-1.704-2.394
		c-1.415,0-2.176,1.342-2.176,2.757v13.745h-3.519V7.148h3.52v9.394h0.072c0.654-1.379,1.85-2.539,3.662-2.539
		c1.961,0,3.664,1.777,3.664,4.315V33.84z M72.632,33.841h-3.521V14.329h3.521V33.841z M70.854,12.117
		c-1.232,0-2.25-1.015-2.25-2.285c0-1.233,1.018-2.249,2.25-2.249c1.27,0,2.285,1.016,2.285,2.249
		C73.139,11.102,72.122,12.117,70.854,12.117z M87.393,33.84h-3.519V19.733c0-1.524-0.728-2.394-1.704-2.394
		c-1.416,0-2.176,1.342-2.176,2.757v13.745h-3.52V14.329h3.338v2.648h0.072c0.869-2.176,2.141-2.974,3.881-2.974
		c1.922,0,3.627,1.777,3.627,4.315V33.84z M102.189,35.038c0,3.337-1.996,5.948-5.948,5.948c-2.575,0-4.243-0.799-5.44-2.647
		l2.829-1.959c0.509,0.907,1.451,1.632,2.611,1.632c2.065,0,2.61-1.849,2.61-5.693V30.65h-0.072
		c-0.652,2.248-1.703,3.519-3.627,3.519c-3.045,0-4.533-3.881-4.533-10.118c0-8.052,2.104-10.047,4.426-10.047
		c2.066,0,3.082,1.269,3.916,3.518h0.073v-3.191h3.155V35.038z"/>
</g>
</svg>
