<?xml version="1.0" encoding="UTF-8" standalone="no"?>
<!DOCTYPE svg PUBLIC "-//W3C//DTD SVG 1.1//EN" "http://www.w3.org/Graphics/SVG/1.1/DTD/svg11.dtd">
<svg width="100%" height="100%" viewBox="0 0 916 352" version="1.1" xmlns="http://www.w3.org/2000/svg" xmlns:xlink="http://www.w3.org/1999/xlink" xml:space="preserve" xmlns:serif="http://www.serif.com/" style="fill-rule:evenodd;clip-rule:evenodd;stroke-linejoin:round;stroke-miterlimit:2;">
    <g transform="matrix(0.24,0,0,0.24,0,0)">
        <g transform="matrix(3.02695,0,0,3.03838,-1448.55,-1959.1)">
            <g transform="matrix(-4.16667,0,0,4.16667,1457.75,456.195)">
                <rect x="114.842" y="45.457" width="120.175" height="115.2" style="fill:rgb(35,31,32);"/>
            </g>
            <g transform="matrix(2.15556,0,0,2.14746,324.985,-287.619)">
                <g transform="matrix(37.6768,0,0,37.6768,161.467,491.924)">
                    <path d="M0.039,-0.152C0.042,-0.053 0.113,0.012 0.235,0.012C0.331,0.012 0.424,-0.044 0.424,-0.15C0.424,-0.217 0.397,-0.262 0.315,-0.286L0.193,-0.321C0.151,-0.333 0.135,-0.355 0.135,-0.384C0.135,-0.425 0.172,-0.459 0.229,-0.459C0.289,-0.459 0.319,-0.43 0.326,-0.371L0.41,-0.371C0.41,-0.449 0.364,-0.533 0.231,-0.533C0.11,-0.533 0.045,-0.461 0.045,-0.375C0.045,-0.313 0.074,-0.262 0.151,-0.241L0.242,-0.216C0.312,-0.197 0.334,-0.176 0.334,-0.142C0.334,-0.111 0.312,-0.067 0.231,-0.067C0.176,-0.067 0.129,-0.096 0.123,-0.152L0.039,-0.152Z" style="fill:white;fill-rule:nonzero;"/>
                </g>
                <g transform="matrix(37.6768,0,0,37.6768,185.1,491.924)">
                    <path d="M0.091,-0.521L0.019,-0.521L0.019,-0.442L0.091,-0.442L0.091,-0.112C0.091,-0.032 0.119,0 0.211,0C0.232,0 0.253,0 0.266,-0.001L0.266,-0.084L0.225,-0.084C0.19,-0.084 0.181,-0.094 0.181,-0.122L0.181,-0.442L0.264,-0.442L0.264,-0.521L0.181,-0.521L0.181,-0.647L0.091,-0.647L0.091,-0.521Z" style="fill:white;fill-rule:nonzero;"/>
                </g>
                <g transform="matrix(37.6768,0,0,37.6768,202.441,491.924)">
                    <path d="M0.495,-0.156C0.449,-0.102 0.392,-0.072 0.328,-0.072C0.227,-0.072 0.155,-0.137 0.141,-0.226L0.587,-0.226C0.587,-0.41 0.475,-0.533 0.314,-0.533C0.151,-0.533 0.045,-0.409 0.045,-0.261C0.045,-0.122 0.144,0.012 0.329,0.012C0.42,0.012 0.494,-0.023 0.564,-0.101L0.495,-0.156ZM0.141,-0.3C0.15,-0.371 0.203,-0.449 0.313,-0.449C0.406,-0.449 0.476,-0.386 0.485,-0.3L0.141,-0.3Z" style="fill:white;fill-rule:nonzero;"/>
                </g>
                <g transform="matrix(37.6768,0,0,37.6768,232.366,491.924)">
                    <path d="M0.287,-0.12L0.122,-0.521L0.02,-0.521L0.245,0L0.329,0L0.554,-0.521L0.452,-0.521L0.287,-0.12Z" style="fill:white;fill-rule:nonzero;"/>
                </g>
                <g transform="matrix(37.6768,0,0,37.6768,260.18,491.924)">
                    <path d="M0.495,-0.156C0.449,-0.102 0.392,-0.072 0.328,-0.072C0.227,-0.072 0.155,-0.137 0.141,-0.226L0.587,-0.226C0.587,-0.41 0.475,-0.533 0.314,-0.533C0.151,-0.533 0.045,-0.409 0.045,-0.261C0.045,-0.122 0.144,0.012 0.329,0.012C0.42,0.012 0.494,-0.023 0.564,-0.101L0.495,-0.156ZM0.141,-0.3C0.15,-0.371 0.203,-0.449 0.313,-0.449C0.406,-0.449 0.476,-0.386 0.485,-0.3L0.141,-0.3Z" style="fill:white;fill-rule:nonzero;"/>
                </g>
            </g>
            <g transform="matrix(4.16667,0,0,4.16667,652.807,1042.3)">
                <path d="M0,-75.098L0,-66.221L-16.938,-66.221L-16.938,-44.284L0,-44.284L0,-35.407L-16.938,-35.407L-16.938,0L-27.346,0L-27.346,-75.098L0,-75.098Z" style="fill:white;fill-rule:nonzero;"/>
            </g>
            <g transform="matrix(4.16667,0,0,4.16667,728.906,844.61)">
                <path d="M0,39.997C3.062,39.997 7.653,36.426 7.653,28.264L7.653,21.018L5.102,21.018C-4.285,21.018 -5.306,26.324 -5.306,31.631C-5.306,36.527 -4.387,39.997 0,39.997M7.653,47.445L7.653,39.385L7.449,39.385C4.592,45.812 1.123,48.364 -3.979,48.364C-7.856,48.364 -15.203,46.221 -15.203,32.854C-15.203,18.365 -9.591,13.468 3.979,13.468L7.653,13.468L7.653,6.428C7.653,2.754 6.021,0 1.429,0C-2.551,0 -4.387,2.143 -4.897,6.937L-13.672,4.488C-12.142,-5.408 -5.816,-8.367 1.939,-8.367C11.428,-8.367 17.04,-4.184 17.04,6.019L17.04,47.445L7.653,47.445Z" style="fill:white;fill-rule:nonzero;"/>
            </g>
            <g transform="matrix(4.16667,0,0,4.16667,841.994,1038.48)">
                <path d="M0,-53.977L9.387,-53.977L9.387,-43.977L9.591,-43.977C10.612,-48.977 13.979,-54.385 21.428,-54.895L21.53,-54.895L21.53,-43.467C20.713,-43.774 19.795,-43.977 18.571,-43.977C14.795,-43.977 9.897,-41.325 9.897,-31.122L9.897,0.918L0,0.918L0,-53.977Z" style="fill:white;fill-rule:nonzero;"/>
            </g>
            <g transform="matrix(4.16667,0,0,4.16667,1084.61,948.342)">
                <path d="M0,-23.468L-5.306,-23.468L-5.306,8.878C-5.306,11.632 -3.775,13.163 -1.225,13.163L0,13.163L0,22.04C-1.632,22.346 -3.265,22.55 -4.693,22.55C-11.02,22.55 -15.203,19.591 -15.203,12.653L-15.203,-23.468L-20.509,-23.468L-20.509,-32.345L-15.203,-32.345L-15.203,-46.018L-5.306,-46.018L-5.306,-32.345L0,-32.345L0,-23.468Z" style="fill:rgb(35,31,32);fill-rule:nonzero;"/>
            </g>
            <g transform="matrix(4.16667,0,0,4.16667,1115.64,1042.3)">
                <path d="M0,-75.098L9.897,-75.098L9.897,-48.67L10.102,-48.67C11.938,-52.548 15.306,-55.813 20.407,-55.813C25.917,-55.813 30.713,-50.813 30.713,-43.671L30.713,0L20.815,0L20.815,-39.692C20.815,-43.977 18.775,-46.426 16.02,-46.426C12.041,-46.426 9.897,-42.651 9.897,-38.671L9.897,0L0,0L0,-75.098Z" style="fill:rgb(35,31,32);fill-rule:nonzero;"/>
            </g>
            <g transform="matrix(4.16667,0,0,4.16667,0,461.791)">
                <path d="M309.283,84.427L319.18,84.427L319.18,139.322L309.283,139.322L309.283,84.427ZM314.181,65.449C317.752,65.449 320.609,68.306 320.609,71.775C320.609,75.346 317.752,78.203 314.181,78.203C310.711,78.203 307.854,75.346 307.854,71.775C307.854,68.306 310.711,65.449 314.181,65.449" style="fill:rgb(35,31,32);fill-rule:nonzero;"/>
            </g>
            <g transform="matrix(4.16667,0,0,4.16667,1374.98,1038.48)">
                <path d="M0,-53.977L9.387,-53.977L9.387,-46.528L9.591,-46.528C12.041,-52.651 15.612,-54.895 20.509,-54.895C25.917,-54.895 30.713,-49.895 30.713,-42.753L30.713,0.918L20.815,0.918L20.815,-38.774C20.815,-43.059 18.775,-45.508 16.02,-45.508C12.041,-45.508 9.897,-41.733 9.897,-37.753L9.897,0.918L0,0.918L0,-53.977Z" style="fill:rgb(35,31,32);fill-rule:nonzero;"/>
            </g>
            <g transform="matrix(4.16667,0,0,4.16667,1610.51,1089.07)">
                <path d="M0,-58.16C-2.755,-58.16 -6.326,-55.508 -6.326,-38.672C-6.326,-21.836 -2.755,-19.183 0,-19.183C2.857,-19.183 6.428,-21.836 6.428,-38.672C6.428,-55.508 2.857,-58.16 0,-58.16M15.816,-66.119L15.816,-7.857C15.816,1.53 10.204,8.877 -0.918,8.877C-8.163,8.877 -12.856,6.633 -16.224,1.428L-8.265,-4.082C-6.836,-1.531 -4.184,0.51 -0.918,0.51C4.897,0.51 6.428,-4.693 6.428,-15.51L6.428,-20.203L6.224,-20.203C4.387,-13.877 1.428,-10.306 -3.979,-10.306C-12.55,-10.306 -16.734,-21.223 -16.734,-38.773C-16.734,-61.426 -10.816,-67.037 -4.286,-67.037C1.53,-67.037 4.387,-63.467 6.734,-57.14L6.939,-57.14L6.939,-66.119L15.816,-66.119Z" style="fill:rgb(35,31,32);fill-rule:nonzero;"/>
            </g>
        </g>
    </g>
</svg>
