<?xml version="1.0" encoding="utf-8"?>
<!-- Generator: Adobe Illustrator 16.0.1, SVG Export Plug-In . SVG Version: 6.00 Build 0)  -->
<!DOCTYPE svg PUBLIC "-//W3C//DTD SVG 1.1//EN" "http://www.w3.org/Graphics/SVG/1.1/DTD/svg11.dtd">
<svg version="1.1" id="Layer_1" xmlns="http://www.w3.org/2000/svg" xmlns:xlink="http://www.w3.org/1999/xlink" x="0px" y="0px"
	 width="107px" height="41px" viewBox="0 0 107 41" enable-background="new 0 0 107 41" xml:space="preserve">
<g>
	<defs>
		<rect id="SVGID_1_" x="0" y="-7.5" width="104.292" height="55.605"/>
	</defs>
	<clipPath id="SVGID_2_">
		<use xlink:href="#SVGID_1_"  overflow="visible"/>
	</clipPath>
</g>
<g>
	<path fill="#FFFFFF" d="M20.848,7.858c0.052,0.481,0.457,0.731,0.93,0.731c0.698,0,0.887-0.379,0.887-0.646
		c0-0.293-0.188-0.474-0.791-0.638L21.09,7.092c-0.664-0.181-0.914-0.62-0.914-1.154c0-0.74,0.561-1.36,1.602-1.36
		c1.146,0,1.542,0.724,1.542,1.396h-0.724c-0.061-0.509-0.318-0.758-0.835-0.758c-0.491,0-0.81,0.292-0.81,0.646
		c0,0.25,0.139,0.439,0.5,0.543l1.05,0.301c0.706,0.207,0.938,0.595,0.938,1.171c0,0.913-0.801,1.396-1.627,1.396
		c-1.051,0-1.662-0.56-1.688-1.412H20.848z"/>
	<path fill="#FFFFFF" d="M24.56,3.596h0.774v1.085h0.715v0.68h-0.715v2.756c0,0.241,0.078,0.327,0.379,0.327h0.354v0.715
		c-0.111,0.009-0.293,0.009-0.474,0.009c-0.792,0-1.033-0.275-1.033-0.965V5.36h-0.62v-0.68h0.62V3.596z"/>
	<path fill="#FFFFFF" d="M31.182,8.297c-0.604,0.672-1.24,0.974-2.023,0.974c-1.594,0-2.445-1.154-2.445-2.351
		c0-1.274,0.912-2.343,2.315-2.343c1.387,0,2.351,1.059,2.351,2.644h-3.84c0.121,0.767,0.74,1.326,1.609,1.326
		c0.552,0,1.043-0.258,1.438-0.724L31.182,8.297z M30.501,6.584c-0.077-0.741-0.681-1.283-1.481-1.283
		c-0.947,0-1.402,0.672-1.48,1.283H30.501z"/>
	<path fill="#FFFFFF" d="M35.486,4.681h0.879l-1.938,4.486h-0.723l-1.938-4.486h0.878l1.421,3.453L35.486,4.681z"/>
	<path fill="#FFFFFF" d="M41.309,8.297c-0.604,0.672-1.24,0.974-2.023,0.974c-1.594,0-2.445-1.154-2.445-2.351
		c0-1.274,0.912-2.343,2.315-2.343c1.387,0,2.352,1.059,2.352,2.644h-3.841c0.121,0.767,0.74,1.326,1.61,1.326
		c0.552,0,1.042-0.258,1.438-0.724L41.309,8.297z M40.629,6.584c-0.078-0.741-0.681-1.283-1.482-1.283
		c-0.947,0-1.402,0.672-1.48,1.283H40.629z"/>
</g>
<g>
	<path fill="#FFFFFF" d="M18.193,5.802v2.954h-5.636v7.3h5.636v2.954h-5.636v11.782H9.094V5.802H18.193z"/>
	<path fill="#FFFFFF" d="M26.818,30.792v-2.683H26.75c-0.951,2.14-2.105,2.989-3.803,2.989c-1.29,0-3.735-0.714-3.735-5.162
		c0-4.821,1.868-6.451,6.384-6.451h1.223v-2.343c0-1.223-0.543-2.14-2.071-2.14c-1.324,0-1.936,0.714-2.105,2.31l-2.921-0.815
		c0.51-3.293,2.615-4.278,5.195-4.278c3.158,0,5.026,1.393,5.026,4.788v13.785H26.818z M24.271,28.313
		c1.019,0,2.547-1.188,2.547-3.904v-2.411h-0.85c-3.123,0-3.463,1.766-3.463,3.531C22.506,27.159,22.812,28.313,24.271,28.313z"/>
	<path fill="#FFFFFF" d="M33.303,12.524h3.125v3.328h0.067c0.339-1.664,1.46-3.464,3.938-3.634h0.034v3.803
		c-0.271-0.102-0.577-0.169-0.984-0.169c-1.257,0-2.887,0.883-2.887,4.278v10.661h-3.294V12.524z"/>
</g>
<g>
	<path fill="#FFFFFF" d="M91.844,15.173c-0.917,0-2.104,0.883-2.104,6.485c0,5.604,1.188,6.485,2.104,6.485
		c0.951,0,2.139-0.882,2.139-6.485C93.982,16.056,92.795,15.173,91.844,15.173z"/>
	<path fill="#FFFFFF" d="M41.906-7.5v55.605h62.564V-7.5H41.906z M49.842,15.479h-1.766v10.765c0,0.916,0.509,1.426,1.357,1.426
		h0.408v2.953c-0.543,0.103-1.086,0.17-1.562,0.17c-2.104,0-3.496-0.984-3.496-3.293V15.479h-1.766v-2.954h1.766v-4.55h3.293v4.55
		h1.766V15.479z M62.541,30.792h-3.294V17.584c0-1.426-0.679-2.241-1.596-2.241c-1.323,0-2.037,1.256-2.037,2.581v12.868H52.32
		V5.802h3.294v8.794h0.067c0.612-1.29,1.732-2.377,3.43-2.377c1.834,0,3.43,1.664,3.43,4.041V30.792z M69.434,30.792h-3.293V12.524
		h3.293V30.792z M67.77,10.453c-1.154,0-2.105-0.95-2.105-2.139c0-1.154,0.951-2.105,2.105-2.105c1.189,0,2.14,0.951,2.14,2.105
		C69.909,9.503,68.959,10.453,67.77,10.453z M83.253,30.792H79.96V17.584c0-1.426-0.679-2.241-1.597-2.241
		c-1.324,0-2.037,1.256-2.037,2.581v12.868h-3.293V12.524h3.123v2.479h0.068c0.814-2.037,2.004-2.784,3.633-2.784
		c1.801,0,3.396,1.664,3.396,4.041V30.792z M97.107,31.913c0,3.123-1.868,5.568-5.569,5.568c-2.41,0-3.974-0.747-5.093-2.479
		l2.648-1.834c0.475,0.85,1.358,1.528,2.444,1.528c1.937,0,2.444-1.731,2.444-5.331v-1.562h-0.068
		c-0.609,2.105-1.595,3.294-3.395,3.294c-2.852,0-4.244-3.634-4.244-9.475c0-7.537,1.969-9.405,4.143-9.405
		c1.936,0,2.887,1.188,3.666,3.294h0.068v-2.988h2.955V31.913z"/>
</g>
<rect x="104.291" y="-7.5" fill="#FFFFFF" width="37.959" height="55.605"/>
</svg>
