<?xml version="1.0" encoding="UTF-8" standalone="no"?>
<!DOCTYPE svg PUBLIC "-//W3C//DTD SVG 1.1//EN" "http://www.w3.org/Graphics/SVG/1.1/DTD/svg11.dtd">
<svg width="100%" height="100%" viewBox="0 0 916 352" version="1.1" xmlns="http://www.w3.org/2000/svg" xmlns:xlink="http://www.w3.org/1999/xlink" xml:space="preserve" xmlns:serif="http://www.serif.com/" style="fill-rule:evenodd;clip-rule:evenodd;stroke-linejoin:round;stroke-miterlimit:2;">
    <g transform="matrix(0.24,0,0,0.24,0,0)">
        <g transform="matrix(1,0,0,1,-304,-826)">
            <g transform="matrix(1262.5,0,0,1262.5,365,1931.04)">
                <path d="M0.069,-0.736L0.069,0L0.335,0L0.335,-0.092L0.171,-0.092L0.171,-0.736L0.069,-0.736Z" style="fill:rgb(35,31,32);fill-rule:nonzero;"/>
            </g>
            <g transform="matrix(1262.5,0,0,1262.5,809.4,1931.04)">
                <path d="M0.139,-0.333C0.139,-0.397 0.152,-0.465 0.205,-0.465C0.257,-0.465 0.273,-0.397 0.273,-0.333L0.139,-0.333ZM0.365,-0.259L0.365,-0.336C0.365,-0.471 0.304,-0.547 0.208,-0.547C0.104,-0.547 0.042,-0.466 0.042,-0.283C0.042,-0.069 0.093,0.009 0.206,0.009C0.308,0.009 0.355,-0.077 0.356,-0.168L0.269,-0.168C0.267,-0.128 0.253,-0.073 0.208,-0.073C0.145,-0.073 0.14,-0.163 0.139,-0.259L0.365,-0.259Z" style="fill:rgb(35,31,32);fill-rule:nonzero;"/>
            </g>
            <g transform="matrix(1262.5,0,0,1262.5,1323.24,1931.04)">
                <path d="M0.343,0L0.343,-0.406C0.343,-0.506 0.288,-0.547 0.195,-0.547C0.119,-0.547 0.057,-0.518 0.042,-0.421L0.128,-0.397C0.133,-0.444 0.151,-0.465 0.19,-0.465C0.235,-0.465 0.251,-0.438 0.251,-0.402L0.251,-0.333L0.215,-0.333C0.082,-0.333 0.027,-0.285 0.027,-0.143C0.027,-0.012 0.099,0.009 0.137,0.009C0.187,0.009 0.221,-0.016 0.249,-0.079L0.251,-0.079L0.251,0L0.343,0ZM0.124,-0.155C0.124,-0.207 0.134,-0.259 0.226,-0.259L0.251,-0.259L0.251,-0.188C0.251,-0.108 0.206,-0.073 0.176,-0.073C0.133,-0.073 0.124,-0.107 0.124,-0.155Z" style="fill:rgb(35,31,32);fill-rule:nonzero;"/>
            </g>
            <g transform="matrix(1262.5,0,0,1262.5,1814.35,1931.04)">
                <path d="M0.053,0L0.15,0L0.15,-0.314C0.15,-0.414 0.198,-0.44 0.235,-0.44C0.247,-0.44 0.256,-0.438 0.264,-0.435L0.264,-0.547L0.263,-0.547C0.19,-0.542 0.157,-0.489 0.147,-0.44L0.145,-0.44L0.145,-0.538L0.053,-0.538L0.053,0Z" style="fill:rgb(35,31,32);fill-rule:nonzero;"/>
            </g>
            <g transform="matrix(1262.5,0,0,1262.5,2188.05,1931.04)">
                <path d="M0.053,0L0.15,0L0.15,-0.379C0.15,-0.418 0.171,-0.455 0.21,-0.455C0.237,-0.455 0.257,-0.431 0.257,-0.389L0.257,0L0.354,0L0.354,-0.428C0.354,-0.498 0.307,-0.547 0.254,-0.547C0.206,-0.547 0.171,-0.525 0.147,-0.465L0.145,-0.465L0.145,-0.538L0.053,-0.538L0.053,0Z" style="fill:rgb(35,31,32);fill-rule:nonzero;"/>
            </g>
            <g transform="matrix(1262.5,0,0,1262.5,2701.89,1931.04)">
                <path d="M0.053,0L0.15,0L0.15,-0.538L0.053,-0.538L0.053,0ZM0.039,-0.662C0.039,-0.627 0.067,-0.599 0.101,-0.599C0.136,-0.599 0.164,-0.627 0.164,-0.662C0.164,-0.696 0.136,-0.724 0.101,-0.724C0.067,-0.724 0.039,-0.696 0.039,-0.662Z" style="fill:rgb(35,31,32);fill-rule:nonzero;"/>
            </g>
            <g transform="matrix(1262.5,0,0,1262.5,2958.18,1931.04)">
                <path d="M0.053,0L0.15,0L0.15,-0.379C0.15,-0.418 0.171,-0.455 0.21,-0.455C0.237,-0.455 0.257,-0.431 0.257,-0.389L0.257,0L0.354,0L0.354,-0.428C0.354,-0.498 0.307,-0.547 0.254,-0.547C0.206,-0.547 0.171,-0.525 0.147,-0.465L0.145,-0.465L0.145,-0.538L0.053,-0.538L0.053,0Z" style="fill:rgb(35,31,32);fill-rule:nonzero;"/>
            </g>
            <g transform="matrix(1262.5,0,0,1262.5,3472.01,1931.04)">
                <path d="M0.263,-0.269C0.263,-0.104 0.228,-0.078 0.2,-0.078C0.173,-0.078 0.138,-0.104 0.138,-0.269C0.138,-0.434 0.173,-0.46 0.2,-0.46C0.228,-0.46 0.263,-0.434 0.263,-0.269ZM0.268,-0.538L0.268,-0.45L0.266,-0.45C0.243,-0.512 0.215,-0.547 0.158,-0.547C0.094,-0.547 0.036,-0.492 0.036,-0.27C0.036,-0.098 0.077,0.009 0.161,0.009C0.214,0.009 0.243,-0.026 0.261,-0.088L0.263,-0.088L0.263,-0.042C0.263,0.064 0.248,0.115 0.191,0.115C0.159,0.115 0.133,0.095 0.119,0.07L0.041,0.124C0.074,0.175 0.12,0.197 0.191,0.197C0.3,0.197 0.355,0.125 0.355,0.033L0.355,-0.538L0.268,-0.538Z" style="fill:rgb(35,31,32);fill-rule:nonzero;"/>
            </g>
        </g>
        <g transform="matrix(1,0,0,1,554,121)">
            <g transform="matrix(345.833,0,0,345.833,0,256.954)">
                <path d="M0.056,-0.736L0.056,0L0.153,0L0.153,-0.49L0.155,-0.49L0.276,-0.072L0.354,-0.072L0.475,-0.49L0.477,-0.49L0.477,0L0.574,0L0.574,-0.736L0.464,-0.736L0.316,-0.245L0.314,-0.245L0.166,-0.736L0.056,-0.736Z" style="fill:rgb(35,31,32);fill-rule:nonzero;"/>
            </g>
            <g transform="matrix(345.833,0,0,345.833,209.229,256.954)">
                <path d="M0.343,0L0.343,-0.406C0.343,-0.506 0.288,-0.547 0.195,-0.547C0.119,-0.547 0.057,-0.518 0.042,-0.421L0.128,-0.397C0.133,-0.444 0.151,-0.465 0.19,-0.465C0.235,-0.465 0.251,-0.438 0.251,-0.402L0.251,-0.333L0.215,-0.333C0.082,-0.333 0.027,-0.285 0.027,-0.143C0.027,-0.012 0.099,0.009 0.137,0.009C0.187,0.009 0.221,-0.016 0.249,-0.079L0.251,-0.079L0.251,0L0.343,0ZM0.124,-0.155C0.124,-0.207 0.134,-0.259 0.226,-0.259L0.251,-0.259L0.251,-0.188C0.251,-0.108 0.206,-0.073 0.176,-0.073C0.133,-0.073 0.124,-0.107 0.124,-0.155Z" style="fill:rgb(35,31,32);fill-rule:nonzero;"/>
            </g>
            <g transform="matrix(345.833,0,0,345.833,335.113,256.954)">
                <path d="M0.324,-0.401C0.322,-0.469 0.286,-0.547 0.193,-0.547C0.084,-0.547 0.036,-0.46 0.036,-0.26C0.036,-0.074 0.085,0.009 0.189,0.009C0.274,0.009 0.315,-0.042 0.329,-0.14L0.242,-0.17C0.235,-0.103 0.221,-0.078 0.189,-0.078C0.148,-0.078 0.133,-0.145 0.133,-0.268C0.133,-0.435 0.156,-0.46 0.188,-0.46C0.22,-0.46 0.231,-0.433 0.232,-0.381L0.324,-0.401Z" style="fill:rgb(35,31,32);fill-rule:nonzero;"/>
            </g>
            <g transform="matrix(345.833,0,0,345.833,448.2,256.954)">
                <path d="M0.053,0L0.15,0L0.15,-0.379C0.15,-0.418 0.171,-0.455 0.21,-0.455C0.237,-0.455 0.257,-0.431 0.257,-0.389L0.257,0L0.354,0L0.354,-0.428C0.354,-0.498 0.307,-0.547 0.253,-0.547C0.203,-0.547 0.17,-0.515 0.152,-0.477L0.15,-0.477L0.15,-0.736L0.053,-0.736L0.053,0Z" style="fill:rgb(35,31,32);fill-rule:nonzero;"/>
            </g>
            <g transform="matrix(345.833,0,0,345.833,580.308,256.954)">
                <path d="M0.053,0L0.15,0L0.15,-0.538L0.053,-0.538L0.053,0ZM0.039,-0.662C0.039,-0.627 0.067,-0.599 0.101,-0.599C0.136,-0.599 0.164,-0.627 0.164,-0.662C0.164,-0.696 0.136,-0.724 0.101,-0.724C0.067,-0.724 0.039,-0.696 0.039,-0.662Z" style="fill:rgb(35,31,32);fill-rule:nonzero;"/>
            </g>
            <g transform="matrix(345.833,0,0,345.833,641.867,256.954)">
                <path d="M0.053,0L0.15,0L0.15,-0.379C0.15,-0.418 0.171,-0.455 0.21,-0.455C0.237,-0.455 0.257,-0.431 0.257,-0.389L0.257,0L0.354,0L0.354,-0.428C0.354,-0.498 0.307,-0.547 0.254,-0.547C0.206,-0.547 0.171,-0.525 0.147,-0.465L0.145,-0.465L0.145,-0.538L0.053,-0.538L0.053,0Z" style="fill:rgb(35,31,32);fill-rule:nonzero;"/>
            </g>
            <g transform="matrix(345.833,0,0,345.833,773.975,256.954)">
                <path d="M0.139,-0.333C0.139,-0.397 0.152,-0.465 0.205,-0.465C0.257,-0.465 0.273,-0.397 0.273,-0.333L0.139,-0.333ZM0.365,-0.259L0.365,-0.336C0.365,-0.471 0.304,-0.547 0.208,-0.547C0.104,-0.547 0.042,-0.466 0.042,-0.283C0.042,-0.069 0.093,0.009 0.206,0.009C0.308,0.009 0.355,-0.077 0.356,-0.168L0.269,-0.168C0.267,-0.128 0.253,-0.073 0.208,-0.073C0.145,-0.073 0.14,-0.163 0.139,-0.259L0.365,-0.259Z" style="fill:rgb(35,31,32);fill-rule:nonzero;"/>
            </g>
        </g>
    </g>
</svg>
