<?xml version="1.0" encoding="utf-8"?>
<!-- Generator: Adobe Illustrator 16.0.1, SVG Export Plug-In . SVG Version: 6.00 Build 0)  -->
<!DOCTYPE svg PUBLIC "-//W3C//DTD SVG 1.1//EN" "http://www.w3.org/Graphics/SVG/1.1/DTD/svg11.dtd">
<svg version="1.1" id="Layer_1" xmlns="http://www.w3.org/2000/svg" xmlns:xlink="http://www.w3.org/1999/xlink" x="0px" y="0px"
	 width="25px" height="25px" viewBox="9.125 5.125 25 25" enable-background="new 9.125 5.125 25 25" xml:space="preserve">
<rect x="-22.125" y="-10.625" stroke="#000000" stroke-miterlimit="10" width="156.5" height="89.25"/>
<g id="phone_1_">
	<g opacity="0.3">
		<rect x="17.406" y="11.297" fill="#FFFFFF" width="8.438" height="9.844"/>
	</g>
	<path fill="#FFFFFF" d="M21.625,8.484C18.25,8.484,16,9.75,16,10.594v13.359c0,0.703,0.703,1.406,1.406,1.406h8.438
		c0.703,0,1.406-0.703,1.406-1.406V10.594C27.25,9.75,25.001,8.484,21.625,8.484z M21.625,24.656c-0.844,0-1.406-0.703-1.406-1.406
		c0-0.843,0.703-1.406,1.406-1.406s1.406,0.703,1.406,1.406C23.031,24.093,22.468,24.656,21.625,24.656z M25.844,21.141h-8.438
		v-9.844h8.438V21.141z"/>
</g>
</svg>
