<?xml version="1.0" encoding="UTF-8" standalone="no"?>
<!DOCTYPE svg PUBLIC "-//W3C//DTD SVG 1.1//EN" "http://www.w3.org/Graphics/SVG/1.1/DTD/svg11.dtd">
<svg width="100%" height="100%" viewBox="0 0 916 352" version="1.1" xmlns="http://www.w3.org/2000/svg" xmlns:xlink="http://www.w3.org/1999/xlink" xml:space="preserve" xmlns:serif="http://www.serif.com/" style="fill-rule:evenodd;clip-rule:evenodd;stroke-linejoin:round;stroke-miterlimit:2;">
    <g transform="matrix(0.24,0,0,0.24,0,0)">
        <g transform="matrix(1,0,0,1,-304,-826)">
            <g transform="matrix(1200,0,0,1200,365,1884.6)">
                <path d="M0.175,-0.736L0.02,0L0.117,0L0.146,-0.152L0.307,-0.152L0.336,0L0.443,0L0.277,-0.736L0.175,-0.736ZM0.162,-0.234L0.226,-0.57L0.228,-0.57L0.292,-0.234L0.162,-0.234Z" style="fill:rgb(35,31,32);fill-rule:nonzero;"/>
            </g>
            <g transform="matrix(1200,0,0,1200,920.6,1884.6)">
                <path d="M0.053,0L0.15,0L0.15,-0.314C0.15,-0.414 0.198,-0.44 0.235,-0.44C0.247,-0.44 0.256,-0.438 0.264,-0.435L0.264,-0.547L0.263,-0.547C0.19,-0.542 0.157,-0.489 0.147,-0.44L0.145,-0.44L0.145,-0.538L0.053,-0.538L0.053,0Z" style="fill:rgb(35,31,32);fill-rule:nonzero;"/>
            </g>
            <g transform="matrix(1200,0,0,1200,1275.8,1884.6)">
                <path d="M0.324,-0.401C0.322,-0.469 0.286,-0.547 0.193,-0.547C0.084,-0.547 0.036,-0.46 0.036,-0.26C0.036,-0.074 0.085,0.009 0.189,0.009C0.274,0.009 0.315,-0.042 0.329,-0.14L0.242,-0.17C0.235,-0.103 0.221,-0.078 0.189,-0.078C0.148,-0.078 0.133,-0.145 0.133,-0.268C0.133,-0.435 0.156,-0.46 0.188,-0.46C0.22,-0.46 0.231,-0.433 0.232,-0.381L0.324,-0.401Z" style="fill:rgb(35,31,32);fill-rule:nonzero;"/>
            </g>
            <g transform="matrix(1200,0,0,1200,1698.2,1884.6)">
                <path d="M0.053,0L0.15,0L0.15,-0.379C0.15,-0.418 0.171,-0.455 0.21,-0.455C0.237,-0.455 0.257,-0.431 0.257,-0.389L0.257,0L0.354,0L0.354,-0.428C0.354,-0.498 0.307,-0.547 0.253,-0.547C0.203,-0.547 0.17,-0.515 0.152,-0.477L0.15,-0.477L0.15,-0.736L0.053,-0.736L0.053,0Z" style="fill:rgb(35,31,32);fill-rule:nonzero;"/>
            </g>
            <g transform="matrix(1200,0,0,1200,2186.6,1884.6)">
                <path d="M0.053,0L0.15,0L0.15,-0.538L0.053,-0.538L0.053,0ZM0.039,-0.662C0.039,-0.627 0.067,-0.599 0.101,-0.599C0.136,-0.599 0.164,-0.627 0.164,-0.662C0.164,-0.696 0.136,-0.724 0.101,-0.724C0.067,-0.724 0.039,-0.696 0.039,-0.662Z" style="fill:rgb(35,31,32);fill-rule:nonzero;"/>
            </g>
            <g transform="matrix(1200,0,0,1200,2430.2,1884.6)">
                <path d="M0.221,-0.538L0.169,-0.538L0.169,-0.672L0.072,-0.672L0.072,-0.538L0.02,-0.538L0.02,-0.451L0.072,-0.451L0.072,-0.097C0.072,-0.029 0.113,0 0.175,0C0.189,0 0.205,-0.002 0.221,-0.005L0.221,-0.092L0.209,-0.092C0.184,-0.092 0.169,-0.107 0.169,-0.134L0.169,-0.451L0.221,-0.451L0.221,-0.538Z" style="fill:rgb(35,31,32);fill-rule:nonzero;"/>
            </g>
            <g transform="matrix(1200,0,0,1200,2719.4,1884.6)">
                <path d="M0.139,-0.333C0.139,-0.397 0.152,-0.465 0.205,-0.465C0.257,-0.465 0.273,-0.397 0.273,-0.333L0.139,-0.333ZM0.365,-0.259L0.365,-0.336C0.365,-0.471 0.304,-0.547 0.208,-0.547C0.104,-0.547 0.042,-0.466 0.042,-0.283C0.042,-0.069 0.093,0.009 0.206,0.009C0.308,0.009 0.355,-0.077 0.356,-0.168L0.269,-0.168C0.267,-0.128 0.253,-0.073 0.208,-0.073C0.145,-0.073 0.14,-0.163 0.139,-0.259L0.365,-0.259Z" style="fill:rgb(35,31,32);fill-rule:nonzero;"/>
            </g>
            <g transform="matrix(1200,0,0,1200,3207.8,1884.6)">
                <path d="M0.324,-0.401C0.322,-0.469 0.286,-0.547 0.193,-0.547C0.084,-0.547 0.036,-0.46 0.036,-0.26C0.036,-0.074 0.085,0.009 0.189,0.009C0.274,0.009 0.315,-0.042 0.329,-0.14L0.242,-0.17C0.235,-0.103 0.221,-0.078 0.189,-0.078C0.148,-0.078 0.133,-0.145 0.133,-0.268C0.133,-0.435 0.156,-0.46 0.188,-0.46C0.22,-0.46 0.231,-0.433 0.232,-0.381L0.324,-0.401Z" style="fill:rgb(35,31,32);fill-rule:nonzero;"/>
            </g>
            <g transform="matrix(1200,0,0,1200,3630.2,1884.6)">
                <path d="M0.221,-0.538L0.169,-0.538L0.169,-0.672L0.072,-0.672L0.072,-0.538L0.02,-0.538L0.02,-0.451L0.072,-0.451L0.072,-0.097C0.072,-0.029 0.113,0 0.175,0C0.189,0 0.205,-0.002 0.221,-0.005L0.221,-0.092L0.209,-0.092C0.184,-0.092 0.169,-0.107 0.169,-0.134L0.169,-0.451L0.221,-0.451L0.221,-0.538Z" style="fill:rgb(35,31,32);fill-rule:nonzero;"/>
            </g>
        </g>
        <g transform="matrix(1,0,0,1,554,121)">
            <g transform="matrix(300,0,0,300,0,222.9)">
                <path d="M0.368,-0.59C0.365,-0.69 0.301,-0.751 0.2,-0.751C0.115,-0.751 0.036,-0.685 0.036,-0.576C0.036,-0.504 0.061,-0.447 0.127,-0.381L0.207,-0.302C0.262,-0.247 0.279,-0.202 0.279,-0.162C0.279,-0.103 0.242,-0.072 0.205,-0.072C0.154,-0.072 0.129,-0.124 0.123,-0.192L0.026,-0.161C0.038,-0.047 0.104,0.015 0.204,0.015C0.32,0.015 0.381,-0.068 0.381,-0.169C0.381,-0.246 0.36,-0.302 0.29,-0.37L0.207,-0.451C0.154,-0.503 0.138,-0.545 0.138,-0.582C0.138,-0.623 0.162,-0.659 0.202,-0.659C0.254,-0.659 0.272,-0.612 0.276,-0.557L0.368,-0.59Z" style="fill:rgb(35,31,32);fill-rule:nonzero;"/>
            </g>
            <g transform="matrix(300,0,0,300,114.6,222.9)">
                <path d="M0.204,0.009C0.331,0.009 0.372,-0.115 0.372,-0.269C0.372,-0.423 0.331,-0.547 0.204,-0.547C0.077,-0.547 0.036,-0.423 0.036,-0.269C0.036,-0.115 0.077,0.009 0.204,0.009ZM0.204,-0.073C0.159,-0.073 0.138,-0.148 0.138,-0.295C0.138,-0.393 0.153,-0.465 0.204,-0.465C0.255,-0.465 0.27,-0.393 0.27,-0.295C0.27,-0.148 0.249,-0.073 0.204,-0.073Z" style="fill:rgb(35,31,32);fill-rule:nonzero;"/>
            </g>
            <g transform="matrix(300,0,0,300,229.5,222.9)">
                <path d="M0.169,-0.451L0.221,-0.451L0.221,-0.538L0.169,-0.538L0.169,-0.611C0.169,-0.641 0.184,-0.653 0.203,-0.653C0.212,-0.653 0.217,-0.652 0.221,-0.65L0.221,-0.742C0.209,-0.744 0.192,-0.745 0.175,-0.745C0.088,-0.745 0.072,-0.697 0.072,-0.618L0.072,-0.538L0.02,-0.538L0.02,-0.451L0.072,-0.451L0.072,0L0.169,0L0.169,-0.451Z" style="fill:rgb(35,31,32);fill-rule:nonzero;"/>
            </g>
            <g transform="matrix(300,0,0,300,294.3,222.9)">
                <path d="M0.221,-0.538L0.169,-0.538L0.169,-0.672L0.072,-0.672L0.072,-0.538L0.02,-0.538L0.02,-0.451L0.072,-0.451L0.072,-0.097C0.072,-0.029 0.113,0 0.175,0C0.189,0 0.205,-0.002 0.221,-0.005L0.221,-0.092L0.209,-0.092C0.184,-0.092 0.169,-0.107 0.169,-0.134L0.169,-0.451L0.221,-0.451L0.221,-0.538Z" style="fill:rgb(35,31,32);fill-rule:nonzero;"/>
            </g>
            <g transform="matrix(300,0,0,300,359.1,222.9)">
                <path d="M0.499,-0.538L0.402,-0.538L0.359,-0.186L0.357,-0.186L0.308,-0.538L0.211,-0.538L0.166,-0.186L0.164,-0.186L0.117,-0.538L0.02,-0.538L0.114,0L0.206,0L0.258,-0.408L0.26,-0.408L0.313,0L0.405,0L0.499,-0.538Z" style="fill:rgb(35,31,32);fill-rule:nonzero;"/>
            </g>
            <g transform="matrix(300,0,0,300,507.3,222.9)">
                <path d="M0.343,0L0.343,-0.406C0.343,-0.506 0.288,-0.547 0.195,-0.547C0.119,-0.547 0.057,-0.518 0.042,-0.421L0.128,-0.397C0.133,-0.444 0.151,-0.465 0.19,-0.465C0.235,-0.465 0.251,-0.438 0.251,-0.402L0.251,-0.333L0.215,-0.333C0.082,-0.333 0.027,-0.285 0.027,-0.143C0.027,-0.012 0.099,0.009 0.137,0.009C0.187,0.009 0.221,-0.016 0.249,-0.079L0.251,-0.079L0.251,0L0.343,0ZM0.124,-0.155C0.124,-0.207 0.134,-0.259 0.226,-0.259L0.251,-0.259L0.251,-0.188C0.251,-0.108 0.206,-0.073 0.176,-0.073C0.133,-0.073 0.124,-0.107 0.124,-0.155Z" style="fill:rgb(35,31,32);fill-rule:nonzero;"/>
            </g>
            <g transform="matrix(300,0,0,300,616.5,222.9)">
                <path d="M0.053,0L0.15,0L0.15,-0.314C0.15,-0.414 0.198,-0.44 0.235,-0.44C0.247,-0.44 0.256,-0.438 0.264,-0.435L0.264,-0.547L0.263,-0.547C0.19,-0.542 0.157,-0.489 0.147,-0.44L0.145,-0.44L0.145,-0.538L0.053,-0.538L0.053,0Z" style="fill:rgb(35,31,32);fill-rule:nonzero;"/>
            </g>
            <g transform="matrix(300,0,0,300,697.8,222.9)">
                <path d="M0.139,-0.333C0.139,-0.397 0.152,-0.465 0.205,-0.465C0.257,-0.465 0.273,-0.397 0.273,-0.333L0.139,-0.333ZM0.365,-0.259L0.365,-0.336C0.365,-0.471 0.304,-0.547 0.208,-0.547C0.104,-0.547 0.042,-0.466 0.042,-0.283C0.042,-0.069 0.093,0.009 0.206,0.009C0.308,0.009 0.355,-0.077 0.356,-0.168L0.269,-0.168C0.267,-0.128 0.253,-0.073 0.208,-0.073C0.145,-0.073 0.14,-0.163 0.139,-0.259L0.365,-0.259Z" style="fill:rgb(35,31,32);fill-rule:nonzero;"/>
            </g>
        </g>
    </g>
</svg>
