<?xml version="1.0" encoding="UTF-8" standalone="no"?>
<!DOCTYPE svg PUBLIC "-//W3C//DTD SVG 1.1//EN" "http://www.w3.org/Graphics/SVG/1.1/DTD/svg11.dtd">
<svg width="100%" height="100%" viewBox="0 0 48 48" version="1.1" xmlns="http://www.w3.org/2000/svg" xmlns:xlink="http://www.w3.org/1999/xlink" xml:space="preserve" xmlns:serif="http://www.serif.com/" style="fill-rule:evenodd;clip-rule:evenodd;stroke-linejoin:round;stroke-miterlimit:2;">
    <g id="twitter_1_" transform="matrix(1,0,0,1,-216,-408)">
        <path d="M259,408L221,408C218.2,408 216,410.2 216,413L216,451C216,453.8 218.2,456 221,456L259,456C261.8,456 264,453.8 264,451L264,413C264,410.2 261.8,408 259,408ZM254.3,425.8L254.3,426.7C254.3,436.2 247.1,447.1 233.9,447.1C229.9,447.1 226.1,445.9 222.9,443.9C223.5,444 224,444 224.6,444C228,444 231.1,442.9 233.5,440.9C230.4,440.8 227.7,438.8 226.8,435.9C227.2,436 227.7,436 228.1,436C228.8,436 229.4,435.9 230,435.8C226.7,435.1 224.2,432.2 224.2,428.8L224.2,428.7C225.2,429.2 226.3,429.6 227.4,429.6C225.5,428.3 224.2,426.1 224.2,423.6C224.2,422.3 224.6,421.1 225.2,420C228.7,424.3 234,427.2 240,427.5C239.9,427 239.8,426.4 239.8,425.9C239.8,421.9 243,418.7 247,418.7C249.1,418.7 250.9,419.6 252.2,421C253.8,420.7 255.4,420.1 256.8,419.3C256.3,421 255.1,422.4 253.6,423.3C255.1,423.1 256.4,422.7 257.7,422.2C256.9,423.5 255.7,424.8 254.3,425.8Z" style="fill-rule:nonzero;"/>
    </g>
</svg>
