<?xml version="1.0" encoding="utf-8"?>
<!-- Generator: Adobe Illustrator 15.0.2, SVG Export Plug-In . SVG Version: 6.00 Build 0)  -->
<!DOCTYPE svg PUBLIC "-//W3C//DTD SVG 1.1//EN" "http://www.w3.org/Graphics/SVG/1.1/DTD/svg11.dtd">
<svg version="1.1" id="Layer_1" xmlns="http://www.w3.org/2000/svg" xmlns:xlink="http://www.w3.org/1999/xlink" x="0px" y="0px"
	 width="107px" height="41px" viewBox="0 0 107 41" enable-background="new 0 0 107 41" xml:space="preserve">
<rect fill="none" width="41.871" height="41"/>
<g>
	<path fill="#FFFFFF" d="M24.891,7.834h0.892l-1.784,4.841h-0.688L22.01,8.894h-0.019l-1.301,3.782h-0.688l-1.784-4.841h0.892
		l1.217,3.503h0.019l1.208-3.503h0.892l1.208,3.503h0.019L24.891,7.834z"/>
	<path fill="#FFFFFF" d="M30.573,11.737c-0.651,0.725-1.338,1.05-2.184,1.05c-1.719,0-2.639-1.245-2.639-2.537
		c0-1.375,0.985-2.528,2.5-2.528c1.496,0,2.537,1.143,2.537,2.853h-4.145c0.13,0.827,0.799,1.431,1.738,1.431
		c0.595,0,1.125-0.279,1.552-0.781L30.573,11.737z M29.839,9.888c-0.083-0.799-0.734-1.385-1.598-1.385
		c-1.022,0-1.515,0.725-1.599,1.385H29.839z"/>
	<path fill="#FFFFFF" d="M31.422,5.613h0.836v2.983h0.019c0.4-0.576,1.125-0.874,1.84-0.874c1.366,0,2.519,1.087,2.519,2.481
		c0,1.524-1.208,2.583-2.556,2.583c-0.836,0-1.45-0.353-1.803-0.854h-0.019v0.743h-0.836V5.613z M33.968,8.503
		c-0.911,0-1.71,0.781-1.71,1.756c0,0.966,0.781,1.747,1.738,1.747c0.883,0,1.747-0.679,1.747-1.793
		C35.743,9.405,35.102,8.503,33.968,8.503z"/>
</g>
<g>
	<path fill="#FFFFFF" d="M79.652,17.79c-0.938,0-2.104,0.869-2.104,6.382c0,5.514,1.169,6.383,2.104,6.383
		c0.902,0,2.072-0.869,2.072-6.383S80.555,17.79,79.652,17.79z"/>
	<path fill="#FFFFFF" d="M49.916,17.623c-1.771,0-2.206,2.272-2.206,4.411h4.478C52.188,19.895,51.653,17.623,49.916,17.623z"/>
	<path fill="#FFFFFF" d="M91.516,17.623c-1.771,0-2.207,2.272-2.207,4.411h4.479C93.787,19.895,93.252,17.623,91.516,17.623z"/>
	<path fill="#FFFFFF" d="M67.559,17.623c-1.705,0-2.207,2.406-2.207,5.68c0,4.913,0.703,7.42,2.207,7.42
		c1.502,0,2.205-2.507,2.205-7.42C69.764,20.028,69.262,17.623,67.559,17.623z"/>
	<path fill="#FFFFFF" d="M41.871-1.5v45.833H108.5V-1.5H41.871z M55.262,24.506H47.71c0.033,3.208,0.2,6.217,2.306,6.217
		c1.503,0,1.971-1.839,2.039-3.176h2.907c-0.032,3.041-1.604,5.915-5.012,5.915c-3.776,0-5.48-2.606-5.48-9.758
		c0-6.115,2.072-8.822,5.547-8.822c3.208,0,5.247,2.54,5.247,7.05v2.574H55.262z M62.445,33.462h-1.203
		c-2.674,0-4.479-1.17-4.479-4.545V8.566h3.24v19.649c0,1.403,0.568,2.172,2.104,2.172h0.334v3.075H62.445z M67.559,33.462
		c-4.244,0-5.615-4.144-5.615-9.29c0-5.146,1.371-9.29,5.615-9.29c4.242,0,5.612,4.144,5.612,9.29
		C73.171,29.318,71.801,33.462,67.559,33.462z M80.956,33.462c-1.771,0-2.74-1.17-3.343-3.241l-0.065-0.033v7.848h-3.073V15.183
		h2.906v2.94h0.066c0.769-2.072,1.703-3.241,3.609-3.241c2.139,0,4.074,1.838,4.074,9.257
		C85.133,29.887,83.764,33.462,80.956,33.462z M96.861,24.506h-7.553c0.032,3.208,0.199,6.217,2.305,6.217
		c1.505,0,1.973-1.839,2.039-3.176h2.908c-0.033,3.041-1.604,5.915-5.015,5.915c-3.774,0-5.479-2.606-5.479-9.758
		c0-6.115,2.072-8.822,5.547-8.822c3.209,0,5.248,2.54,5.248,7.05V24.506z M105.415,18.625c-0.269-0.101-0.567-0.167-0.97-0.167
		c-1.236,0-2.84,0.869-2.84,4.21v10.493h-3.242V15.183h3.074v3.275h0.065c0.334-1.638,1.438-3.409,3.877-3.576h0.033L105.415,18.625
		L105.415,18.625z"/>
</g>
<g>
	<path fill="#FFFFFF" d="M3.242,8.567h3.943c6.483,0,8.254,6.115,8.254,12.498c0,5.246-1.637,12.099-7.986,12.099h-4.21L3.242,8.567
		L3.242,8.567z M6.65,30.255c4.077,0,5.213-4.144,5.213-9.424c0-6.082-1.804-9.356-5.213-9.356V30.255z"/>
	<path fill="#FFFFFF" d="M20.65,24.507c0.033,3.208,0.2,6.216,2.306,6.216c1.504,0,1.972-1.838,2.039-3.175h2.907
		c-0.034,3.041-1.604,5.915-5.013,5.915c-3.776,0-5.48-2.605-5.48-9.758c0-6.115,2.072-8.822,5.547-8.822
		c3.208,0,5.247,2.54,5.247,7.051v2.572L20.65,24.507L20.65,24.507z M25.128,22.034c0-2.139-0.535-4.411-2.272-4.411
		c-1.771,0-2.206,2.272-2.206,4.411H25.128z"/>
	<path fill="#FFFFFF" d="M39.864,15.184l-3.676,17.978h-3.074l-3.676-17.978h3.408l1.905,11.761h0.067l1.805-11.761H39.864z"/>
</g>
</svg>
