<?xml version="1.0" encoding="utf-8"?>
<!-- Generator: Adobe Illustrator 16.0.1, SVG Export Plug-In . SVG Version: 6.00 Build 0)  -->
<!DOCTYPE svg PUBLIC "-//W3C//DTD SVG 1.1//EN" "http://www.w3.org/Graphics/SVG/1.1/DTD/svg11.dtd">
<svg version="1.1" id="Layer_1" xmlns="http://www.w3.org/2000/svg" xmlns:xlink="http://www.w3.org/1999/xlink" x="0px" y="0px"
	 width="25px" height="25px" viewBox="9.125 5.125 25 25" enable-background="new 9.125 5.125 25 25" xml:space="preserve">
<rect x="-25.125" y="-11.875" stroke="#000000" stroke-miterlimit="10" width="156.5" height="89.25"/>
<g id="globe">
	<path fill="#FFFFFF" d="M22.145,11.584c-0.29,0.146-0.436,0.726-0.872,0.291c-0.145,0.291-0.436,0.436-0.436,0.873
		c0.436,0.29,1.307,0.29,1.889,0.436C22.727,12.892,22.145,12.166,22.145,11.584z"/>
	<path fill="#FFFFFF" d="M22,8.825c-4.502,0-8.425,3.776-8.425,8.425s3.776,8.425,8.425,8.425c4.502,0,8.425-3.776,8.425-8.425
		S26.502,8.825,22,8.825z M26.502,22.916c-0.871,0.726-2.033,1.597-3.194,1.597c-0.146-0.291,0-0.435,0-0.726
		c-0.582-0.146-1.017-0.728-1.308-1.162c-0.145-0.582,0.727-1.162,0.582-1.599c-1.017,0.146-1.599-0.872-2.469-1.162
		c-0.582-0.145-1.017-0.291-1.599-0.58c-0.29-0.146-0.581-0.582-1.016-0.437c0-0.58-0.437-1.162-0.437-1.452
		c0.146-0.872-0.436-1.742-0.145-2.615c0.145-0.871,0.726-1.597,0.871-2.47c0-0.145-0.29-0.29-0.29-0.581
		c0-0.291,1.016-0.726,1.307-0.872c0.435-0.145,0.873,0,1.308,0c0.726-0.145,1.597-0.145,2.179-0.727c0.145,0,0.436,0,0.58,0
		c0.582,0.582,2.179,0.291,2.034,1.599c0,0-0.582,0.291-1.597-0.146c0.145,0,0,0.437,0,0.582c0.871,0.436,1.888,0.871,2.323,1.743
		c-0.291,0.436-0.871,0.291-1.308,0.291c-0.144,0.145-0.144,0.289-0.144,0.58c-0.871,0.436-0.727,0.873-1.017,1.599
		c-0.145,0.436-0.581,0.58-0.581,1.162c0.145,0.58-0.146,0.871-0.291,1.453c0,0-0.727-0.436-1.162-1.017
		c-0.146-0.291-0.873-0.145-1.163-0.291c-0.727,0.291-0.145,1.888,0.437,1.162c0.726-0.871,0.871,0.146,0.871,0.726
		c0.291,0.146,0.582,0,0.727,0.291c0,0.146,0,0.582,0,0.727c0.145,0.291,0.871,0,1.017-0.145c0.727-0.435,1.597-0.291,2.324-0.291
		c0.436,0.291,1.017,0.291,1.453,0.436c0.436,0.146,0.727,0,1.017,0.291C27.955,21.607,27.229,22.189,26.502,22.916z"/>
</g>
</svg>
